<svg xmlns="http://www.w3.org/2000/svg" viewBox="0 0 151 151"><defs><style>.cls-1{fill:#fade6c;}.cls-2{fill:#494949;}</style></defs><g id="Layer_2" data-name="Layer 2"><g id="Layer_1-2" data-name="Layer 1"><rect class="cls-1" width="151" height="151" rx="25"/><path class="cls-2" d="M120.21,96.23c0,14.74-15.49,24.23-38.22,24.23H31.91v-2h10V37.28L30.79,30.54H75.87c24.61,0,39.22,6.74,39.22,20.61,0,10.61-8,17.61-27.6,21.1C107.1,73.5,120.21,82.12,120.21,96.23ZM69.38,32.54v39h2.25c10.11,0,14.74-6.74,14.74-19.48,0-10.74-3.38-19.48-15-19.48ZM91.49,96.61c0-15.49-8.12-23.11-18.61-23.11h-3.5v45H72C85.87,118.46,91.49,111.22,91.49,96.61Z"/></g></g></svg>