<svg xmlns="http://www.w3.org/2000/svg" viewBox="0 0 833.2 126.14"><defs><style>.cls-1{fill:#fade6c;}</style></defs><g id="Layer_2" data-name="Layer 2"><g id="Layer_1-2" data-name="Layer 1"><path class="cls-1" d="M24.41,90.17,24,86.78c.27-.07,2-.47,5-5.36,1.76-2.85,3-5.63,3.12-5.63l3.12,1.43c-.07.13-1.43,3-3.26,6C29.16,87.59,26.72,89.83,24.41,90.17Z"/><path class="cls-1" d="M14.31,82.3l-.41-3.39c.27-.06,1.83-.47,4.41-5.22a51.71,51.71,0,0,0,2.51-5.49L24,69.35a52.17,52.17,0,0,1-2.71,6C19,79.73,16.68,82,14.31,82.3Z"/><path class="cls-1" d="M6.1,72.88l-.4-3.39C6.51,69.42,8.14,68,10,64.4A43.79,43.79,0,0,0,12.48,59l3.19,1.16A53.59,53.59,0,0,1,13,66C10.72,70.37,8.48,72.61,6.1,72.88Z"/><rect class="cls-1" x="5.05" y="48.89" width="3.39" height="11.33" transform="translate(-47.99 59.6) rotate(-88.21)"/><rect class="cls-1" x="4.33" y="34.61" width="3.39" height="9.97" transform="translate(-34.02 39.83) rotate(-81.68)"/><rect class="cls-1" x="5.89" y="19.44" width="3.39" height="11.94" transform="translate(-18.09 18.77) rotate(-58.89)"/><path class="cls-1" d="M33.64,94.92l-.61-.2a67.59,67.59,0,0,1-16.41-9.64A48.73,48.73,0,0,1,5.22,72.61,34.6,34.6,0,0,1,0,54.43V19.1l.88-.48A71.72,71.72,0,0,1,11,14.21a73.31,73.31,0,0,1,23.6-4.4,75.26,75.26,0,0,1,23.8,4.34,70.11,70.11,0,0,1,10.31,4.4l.88.48V54.3A32.59,32.59,0,0,1,64,72.47,49.89,49.89,0,0,1,51.81,85a75.46,75.46,0,0,1-17.56,9.63ZM3.39,21.2V54.36c0,10.45,5.16,19.81,15.26,27.94a66.49,66.49,0,0,0,15,9,76.58,76.58,0,0,0,16.14-9c10.85-8.07,16.34-17.49,16.34-27.87V21.2c-3.52-1.76-17-7.87-31.6-7.87S6.85,19.44,3.39,21.2Z"/><path class="cls-1" d="M33.64,78.1l-.54-.2a47.45,47.45,0,0,1-11.33-6.65C14.24,65.28,10.31,58,10.31,50V27.85l.81-.48a52.14,52.14,0,0,1,23.13-6c12.21,0,23,5.76,23.46,6l.82.48V50a23.46,23.46,0,0,1-5.22,14.52c-7.06,9-18.65,13.22-19.13,13.36ZM13.5,29.81V50.09c0,7,3.45,13.29,10.3,18.72a44.51,44.51,0,0,0,9.91,5.9c2.3-.95,11.46-4.95,17.09-12.14A19.87,19.87,0,0,0,55.34,50V29.81c-2.71-1.29-11.53-5.22-21.09-5.22S16.14,28.46,13.5,29.81Z"/><polygon class="cls-1" points="43.34 71.66 33.71 66.98 24.14 71.39 22.79 68.47 33.77 63.45 44.69 68.81 43.34 71.66"/><path class="cls-1" d="M32.82,59.65,25.7,51.79l1.43-6.11L17,40.6l3.39-6.31,12.82.41-3.8,16.14,5.9,6.51ZM21.7,39.17l6.24,3.12L29,38l-6.51-.2Z"/><path class="cls-1" d="M33.43,60.26,31.2,57.69l8-7-3.8-16,12.82-.41,3.39,6.31L41.5,45.68,43,51.92ZM39.74,38l1,4.27L47,39.17l-.75-1.35Z"/><rect class="cls-1" x="28.08" y="46.7" width="12" height="4.48"/><path class="cls-1" d="M43.2,90.17c-2.31-.27-4.75-2.58-7.66-7a51,51,0,0,1-3.39-6l3.05-1.49a45.21,45.21,0,0,0,3.19,5.63c3.18,4.95,4.88,5.35,5.15,5.42ZM33.71,76.4l1.56-.74h0Z"/><path class="cls-1" d="M54,83c-2.3-.27-4.68-2.64-7.19-7.32a66.76,66.76,0,0,1-2.91-6.24l3.19-1.22h0a53,53,0,0,0,2.71,5.9c2.78,5.15,4.41,5.49,4.61,5.49Z"/><path class="cls-1" d="M62.26,73c-2.38-.28-4.55-2.65-6.72-7.19-1.42-3.06-2.3-6-2.37-6l3.26-1a45.71,45.71,0,0,0,2.17,5.63c1.76,3.73,3.25,5.09,4,5.22ZM54.87,59.18l1.62-.48h0Z"/><rect class="cls-1" x="56.97" y="52.8" width="10.92" height="3.39" transform="translate(-1.73 2.05) rotate(-1.86)"/><rect class="cls-1" x="56.9" y="37.89" width="10.99" height="3.39" transform="translate(-4.67 8.56) rotate(-7.57)"/><rect class="cls-1" x="56.02" y="23.52" width="12.75" height="3.39" transform="translate(-3.99 36.23) rotate(-31.43)"/><path class="cls-1" d="M109.39,88.81c-8.54,0-17.09-2.17-23.53-6a26.87,26.87,0,0,1-8.48-7.73,19.5,19.5,0,0,1-3.32-11.12,46.67,46.67,0,0,1,3.19-17.37,39.81,39.81,0,0,1,8.27-12.88,35.61,35.61,0,0,1,11.39-8,30.66,30.66,0,0,1,12.48-2.78c8.48,0,17.09,3.93,23.53,10.78a38.18,38.18,0,0,1,8,12.88,48.29,48.29,0,0,1,3,17.37h0c0,7.73-3.93,14.24-11.39,18.85A46.08,46.08,0,0,1,109.39,88.81Zm0-62.73c-7.73,0-15.6,3.6-21.56,9.77-4.82,5-10.58,13.9-10.58,28.08,0,8.27,5.56,13.36,10.24,16.14a44.16,44.16,0,0,0,21.9,5.56c7.94,0,15.74-2,21.5-5.56,4.54-2.78,9.9-7.87,9.9-16.14,0-14.25-5.56-23.13-10.24-28.08C124.72,29.61,117,26.08,109.39,26.08Z"/><path class="cls-1" d="M85.79,35.24c-.14-.21-3.19-4.55-2.1-9.23.61-2.64,2.44-4.74,5.36-6.3l.13-.07a12.12,12.12,0,0,1,5.22-.88c2.72.13,6.38,1.29,8.68,6.1l-2.84,1.36a6.86,6.86,0,0,0-5.9-4.34,9.15,9.15,0,0,0-3.87.61,6.61,6.61,0,0,0-3.66,4.2c-.75,3.26,1.56,6.65,1.63,6.65Z"/><path class="cls-1" d="M132.59,35.24,130,33.41c0-.07,2.37-3.46,1.63-6.65a6.63,6.63,0,0,0-3.67-4.2,8.84,8.84,0,0,0-3.86-.61c-2.65.13-4.61,1.62-5.9,4.34l-2.85-1.36c2.31-4.82,6-6,8.68-6.1a12.34,12.34,0,0,1,5.22.88l.14.07c2.91,1.56,4.75,3.66,5.36,6.3C135.77,30.69,132.72,35,132.59,35.24Z"/><path class="cls-1" d="M109.87,72.74h-1.09l-.41-.27c-.06-.07-6.57-4.61-8.41-5.76-1.62-1.09-1.89-2.24-1.76-3.06.27-2,2.85-3,3.6-3.25l.27-.07h14.51l.27.07c.82.27,3.32,1.22,3.6,3.25a3.25,3.25,0,0,1-1.77,3.06c-1.83,1.15-8.34,5.69-8.41,5.76ZM101.66,64a.07.07,0,0,1,.07.07c1.49,1,5.76,3.93,7.59,5.22,1.83-1.29,6.18-4.27,7.6-5.22A.07.07,0,0,0,117,64c-.27-.13-.61-.34-.95-.47H102.61A4,4,0,0,0,101.66,64Z"/><path class="cls-1" d="M132.45,46.36c-.14-.2-.27-.41-.47-.68l-.07-.07-.68-.67-9.36-7.74A5.44,5.44,0,0,0,118.55,36a5.3,5.3,0,0,0-5.29,5.29,5.08,5.08,0,0,0,.88,2.92l.07.07,7.52,9.83.82.88a6.62,6.62,0,0,0,11-4.95A7.56,7.56,0,0,0,132.45,46.36Zm-13.56-1.9a2.65,2.65,0,0,1-2.65-2.64,2.69,2.69,0,0,1,2.65-2.65,2.6,2.6,0,0,1,2.64,2.65A2.64,2.64,0,0,1,118.89,44.46Z"/><path class="cls-1" d="M101,36.05a5,5,0,0,0-3.32,1.22L88.3,45l-.68.68-.07.07a2.36,2.36,0,0,0-.47.68,6.61,6.61,0,0,0,5.56,10.24A6.61,6.61,0,0,0,97.05,55l.81-.88,7.46-9.76.07-.07a5.67,5.67,0,0,0,.88-2.92A5.3,5.3,0,0,0,101,36.05Zm-1.15,8.41a2.65,2.65,0,0,1-2.65-2.64,2.69,2.69,0,0,1,2.65-2.65,2.65,2.65,0,0,1,2.64,2.65A2.69,2.69,0,0,1,99.83,44.46Z"/><path class="cls-1" d="M240.72,70.69c0,14.74-15.49,24.23-38.22,24.23H152.42v-2h10V11.74L151.29,5h45.09c24.6,0,39.21,6.74,39.21,20.6,0,10.62-8,17.61-27.6,21.11C227.6,48,240.72,56.58,240.72,70.69ZM189.88,7V46h2.25c10.12,0,14.74-6.74,14.74-19.48,0-10.74-3.37-19.49-15-19.49ZM212,71.06c0-15.48-8.12-23.1-18.61-23.1h-3.5v45h2.63C206.37,92.92,212,85.68,212,71.06Z"/><path class="cls-1" d="M249.46,63.32c0-17.86,14-32.1,34.34-32.1,20.61,0,35.47,12.49,35.47,32.1,0,18.24-11.61,32.85-35.34,32.85C265.94,96.17,249.46,83.43,249.46,63.32ZM303,85.3c0-10.49-21-49.58-32-49.58-3.12,0-5,2.25-5,6.12,0,12.24,21.6,49.83,31.85,49.83C301.29,91.67,303,89.55,303,85.3Z"/><path class="cls-1" d="M326,92.92h6.25V47.33l-7.12-6.12L357.24,30v63h6.24v2H326Zm4.87-79.06c0-8.24,5-13.86,13.87-13.86s13.86,5.62,13.86,13.86-5,14-13.86,14S330.88,22.23,330.88,13.86Z"/><path class="cls-1" d="M368.1,92.92h6.25V18.61l-7.12-6.12,32.1-11.24V92.92h6.24v2H368.1Z"/><path class="cls-1" d="M468.26,83.68c-5.24,8-13.61,12.49-25.22,12.49-17.61,0-32.1-12.24-32.1-31.6,0-18.23,12.24-33.35,32.22-33.35,11.74,0,19.86,6.87,19.86,16,0,10.37-8,19.48-23,25.1,7.12,7,16.11,11.62,24.48,11.62a16.88,16.88,0,0,0,3.62-.38ZM426.42,43c0,10.37,5.38,20.86,12.87,28.6,3.5-4.49,4.87-9.49,4.87-15.86,0-10.86-7.24-20.11-12.61-20.11C428.3,35.59,426.42,38.34,426.42,43Z"/><path class="cls-1" d="M526.46,31.47v33.1h-.12c-13-14.36-18.86-17.61-23.23-16.86V92.92h9.37v2H471.89v-2h6.24V47.58L471,41.46l32.1-10.74V46.34c7.12-9.37,15.24-15.24,21-15.24A7.23,7.23,0,0,1,526.46,31.47Z"/><path class="cls-1" d="M607.27,60.82c0,22-12.12,35.35-29,35.35a27.15,27.15,0,0,1-15-4.5v32.47h10v2H532.08v-2h6.25V47.33l-7.12-6.12L563.31,30V42.34c6.61-6.75,14.36-11.12,21.73-11.12C597.65,31.22,607.27,41.46,607.27,60.82Zm-26.73,7.12c0-16.73-3.62-25.1-12-25.1a12.88,12.88,0,0,0-5.24,1.25V89.55a10.66,10.66,0,0,0,6.11,1.87C575.92,91.42,580.54,82.93,580.54,67.94Z"/><path class="cls-1" d="M613.39,92.92h6.24V18.61l-7.12-6.12,32.1-11.24V92.92h6.25v2H613.39Z"/><path class="cls-1" d="M719.17,92.92v2H688V87.8c-5.87,5-12.49,8.37-19.36,8.37-8.12,0-13.62-4.62-13.62-12.49,0-11.49,12.24-19.11,33-21.36,0-13.74-5.5-20.61-15-20.61a20.68,20.68,0,0,0-13.74,4.75l-.62-.62c8.49-9.5,17.73-14.62,30.22-14.62,15.74,0,24.11,9,24.11,27.1v34.6ZM688,86.05V63.94c-7.5,2.13-10.37,6.87-10.37,13.49,0,5.87,2.5,9,7.49,9A14.08,14.08,0,0,0,688,86.05Z"/><path class="cls-1" d="M774,83.43c-4.62,7.37-12.87,12.74-24.36,12.74-14.86,0-20.73-8.74-20.73-25V35.72h-9.62v-.13l34.6-27.22V33.72H771.5v2H753.89v29.1c0,14.49,3.37,19.86,12.61,19.86a18.37,18.37,0,0,0,7.37-1.38Z"/><path class="cls-1" d="M833.2,83.68c-5.25,8-13.62,12.49-25.23,12.49-17.61,0-32.1-12.24-32.1-31.6,0-18.23,12.24-33.35,32.22-33.35,11.74,0,19.86,6.87,19.86,16,0,10.37-8,19.48-23,25.1,7.12,7,16.11,11.62,24.48,11.62a16.88,16.88,0,0,0,3.62-.38ZM791.36,43c0,10.37,5.37,20.86,12.86,28.6,3.5-4.49,4.87-9.49,4.87-15.86,0-10.86-7.24-20.11-12.61-20.11C793.23,35.59,791.36,38.34,791.36,43Z"/></g></g></svg>